<?xml version="1.0" standalone="no"?><!DOCTYPE svg PUBLIC "-//W3C//DTD SVG 1.1//EN" "http://www.w3.org/Graphics/SVG/1.1/DTD/svg11.dtd"><svg t="1627467322058" class="icon" viewBox="0 0 1025 1024" version="1.1" xmlns="http://www.w3.org/2000/svg" p-id="1254" xmlns:xlink="http://www.w3.org/1999/xlink" width="128.125" height="128"><defs><style type="text/css">@font-face { font-family: feedback-iconfont; src: url("//at.alicdn.com/t/font_1031158_1uhr8ri0pk5.eot?#iefix") format("embedded-opentype"), url("//at.alicdn.com/t/font_1031158_1uhr8ri0pk5.woff2") format("woff2"), url("//at.alicdn.com/t/font_1031158_1uhr8ri0pk5.woff") format("woff"), url("//at.alicdn.com/t/font_1031158_1uhr8ri0pk5.ttf") format("truetype"), url("//at.alicdn.com/t/font_1031158_1uhr8ri0pk5.svg#iconfont") format("svg"); }
</style></defs>
<path d="M512.887808 938.666667c-71.68 0-136.533333-112.64-136.533333-238.933334s64.853333-238.933333 136.533333-238.933333 136.533333 112.64 136.533333 238.933333-64.853333 238.933333-136.533333 238.933334z m0-443.733334c-47.786667 0-102.4 92.16-102.4 204.8s54.613333 204.8 102.4 204.8 102.4-92.16 102.4-204.8-54.613333-204.8-102.4-204.8zM188.621141 1006.933333c-3.413333 0-6.826667 0-6.826666-3.413333-10.24-3.413333-13.653333-13.653333-6.826667-20.48L239.821141 849.92V682.666667c0-3.413333 0-6.826667 3.413334-10.24l170.666666-204.8c6.826667-6.826667 17.066667-6.826667 23.893334-3.413334 6.826667 6.826667 6.826667 17.066667 3.413333 23.893334L273.954475 689.493333V853.333333c0 3.413333 0 6.826667-3.413334 6.826667l-68.266666 136.533333c0 6.826667-6.826667 10.24-13.653334 10.24zM52.087808 768c-6.826667 0-10.24-3.413333-13.653333-6.826667-6.826667-10.24-3.413333-20.48 3.413333-23.893333l98.986667-64.853333 81.92-201.386667 10.24-10.24 187.733333-64.853333c10.24-3.413333 17.066667 0 20.48 10.24 3.413333 10.24 0 17.066667-10.24 20.48l-180.906667 64.853333L171.554475 689.493333c0 3.413333-3.413333 6.826667-6.826667 6.826667l-102.4 68.266667c-3.413333 3.413333-6.826667 3.413333-10.24 3.413333zM427.554475 385.706667h-3.413334l-170.666666-44.373334c-3.413333 0-6.826667-3.413333-10.24-6.826666L144.247808 184.32l-129.706667-34.133333c-10.24 0-17.066667-10.24-13.653333-17.066667 3.413333-10.24 10.24-13.653333 20.48-13.653333l136.533333 34.133333c3.413333 0 6.826667 3.413333 10.24 6.826667L267.127808 307.2l163.84 40.96c10.24 3.413333 13.653333 10.24 13.653333 20.48-3.413333 10.24-10.24 17.066667-17.066666 17.066667zM478.754475 187.733333c-30.72 0-51.2-27.306667-78.506667-58.026666-30.72-37.546667-64.853333-78.506667-109.226667-78.506667-10.24 0-17.066667-6.826667-17.066666-17.066667s6.826667-17.066667 17.066666-17.066666c61.44 0 102.4 51.2 136.533334 88.746666 17.066667 23.893333 37.546667 47.786667 51.2 47.786667 10.24 0 17.066667 6.826667 17.066666 17.066667s-6.826667 17.066667-17.066666 17.066666z" fill="" p-id="1255"></path>
<path d="M448.034475 515.413333c-6.826667 0-13.653333-3.413333-17.066667-10.24 0-3.413333-23.893333-58.026667-23.893333-92.16 0-44.373333 37.546667-122.88 102.4-122.88s102.4 78.506667 102.4 122.88c0 37.546667-20.48 92.16-23.893334 92.16-3.413333 10.24-13.653333 13.653333-23.893333 10.24-10.24-3.413333-13.653333-13.653333-10.24-23.893333 6.826667-13.653333 20.48-54.613333 20.48-81.92 0-23.893333-27.306667-88.746667-68.266667-88.746667s-68.266667 61.44-68.266666 88.746667c0 23.893333 13.653333 64.853333 20.48 81.92 3.413333 10.24 0 17.066667-10.24 23.893333 3.413333 0 3.413333 0 0 0z" fill="" p-id="1256"></path>
<path d="M557.261141 341.333333c-3.413333 0-6.826667 0-10.24-3.413333-6.826667-6.826667-10.24-17.066667-3.413333-23.893333 0 0 20.48-30.72 20.48-58.026667 0-27.306667-17.066667-64.853333-51.2-64.853333s-51.2 37.546667-51.2 64.853333c0 27.306667 20.48 58.026667 20.48 58.026667 6.826667 6.826667 3.413333 17.066667-3.413333 23.893333-6.826667 6.826667-17.066667 3.413333-23.893334-3.413333 0 0-27.306667-37.546667-27.306666-78.506667 0-47.786667 30.72-98.986667 85.333333-98.986667s85.333333 51.2 85.333333 98.986667c0 40.96-27.306667 78.506667-27.306666 78.506667-3.413333 6.826667-10.24 6.826667-13.653334 6.826666zM837.154475 1006.933333c-6.826667 0-10.24-3.413333-13.653334-6.826666l-85.333333-136.533334c-3.413333-3.413333-3.413333-6.826667-3.413333-10.24v-163.84l-150.186667-201.386666c-6.826667-6.826667-3.413333-17.066667 3.413333-23.893334 6.826667-6.826667 17.066667-3.413333 23.893334 3.413334l153.6 204.8c3.413333 3.413333 3.413333 6.826667 3.413333 10.24v167.253333l81.92 133.12c3.413333 6.826667 3.413333 17.066667-6.826667 23.893333h-6.826666zM973.687808 768c-3.413333 0-6.826667 0-10.24-3.413333l-102.4-68.266667-6.826667-6.826667-81.92-197.973333-180.906666-64.853333c-10.24-3.413333-13.653333-13.653333-10.24-20.48 3.413333-10.24 13.653333-13.653333 20.48-10.24l187.733333 64.853333c3.413333 0 6.826667 3.413333 10.24 10.24l81.92 201.386667 98.986667 64.853333c6.826667 6.826667 10.24 17.066667 3.413333 23.893333 0 3.413333-3.413333 6.826667-10.24 6.826667zM598.221141 392.533333c-6.826667 0-13.653333-3.413333-17.066666-10.24-3.413333-10.24 0-17.066667 10.24-23.893333l167.253333-64.853333 98.986667-133.12c3.413333-3.413333 6.826667-6.826667 10.24-6.826667l136.533333-34.133333c10.24-3.413333 17.066667 3.413333 20.48 13.653333 3.413333 10.24-3.413333 17.066667-13.653333 20.48l-129.706667 34.133333-98.986667 133.12-6.826666 6.826667-170.666667 68.266667c-3.413333-3.413333-3.413333-3.413333-6.826667-3.413334z" fill="" p-id="1257"></path>
<path d="M547.021141 187.733333c-10.24 0-17.066667-6.826667-17.066666-17.066666s6.826667-17.066667 17.066666-17.066667c13.653333 0 34.133333-23.893333 51.2-47.786667 34.133333-40.96 75.093333-88.746667 136.533334-88.746666 10.24 0 17.066667 6.826667 17.066666 17.066666s-6.826667 17.066667-17.066666 17.066667c-44.373333 0-78.506667 40.96-109.226667 78.506667-27.306667 30.72-47.786667 58.026667-78.506667 58.026666z" fill="" p-id="1258"></path>
</svg>
