<?xml version="1.0" encoding="utf-8"?>
<!-- Generator: Adobe Illustrator 24.0.3, SVG Export Plug-In . SVG Version: 6.00 Build 0)  -->
<svg version="1.1" xmlns="http://www.w3.org/2000/svg" xmlns:xlink="http://www.w3.org/1999/xlink" x="0px" y="0px"
	 viewBox="0 0 1238.3 656.2" style="enable-background:new 0 0 1238.3 656.2;" xml:space="preserve">
<style type="text/css">
	.st0{fill:#050A23;}
	.st1{fill:url(#SVGID_1_);}
	.st2{fill:url(#SVGID_2_);}
	.st3{fill:url(#SVGID_3_);}
	.st4{fill:url(#SVGID_4_);}
	.st5{fill:#38BDE2;}
	.st6{fill:#093C48;}
	.st7{fill:#70C8DE;}
	.st8{opacity:0.8;fill:#24A0C0;}
	.st9{fill:#145A7A;}
	.st10{fill:#47AECA;}
	.st11{fill:url(#SVGID_5_);}
	.st12{fill:url(#SVGID_6_);}
	.st13{fill:#1C8199;}
	.st14{fill:url(#SVGID_7_);}
	.st15{fill:url(#SVGID_8_);}
	.st16{fill:#2CA8C6;}
	.st17{fill:#2F82A0;}
	.st18{fill:#217187;}
	.st19{fill:#2D6E9F;}
	.st20{fill:#3BA2BE;}
	.st21{fill:#3188A6;}
	.st22{fill:#4C9CB2;}
	.st23{fill:#186183;}
	.st24{fill:#3196BB;}
	.st25{fill:#0D637B;}
	.st26{fill:#47AECA;stroke:#127592;stroke-miterlimit:10;}
	.st27{fill:#41AAC7;stroke:#145A7A;stroke-miterlimit:10;}
	.st28{fill:#38A8CB;stroke:#19688B;stroke-width:0.9757;stroke-miterlimit:10;}
	.st29{fill:url(#SVGID_9_);}
	.st30{fill:url(#SVGID_10_);}
	.st31{fill:#0F6073;stroke:#55C1D6;stroke-miterlimit:10;}
	.st32{fill:#117D90;stroke:#55C1D6;stroke-width:0.1642;stroke-miterlimit:10;}
	.st33{fill:#0F6073;}
	.st34{fill:#F7F8F8;}
</style>
<g id="图层_6">
	<rect x="-9.1" y="0.8" class="st0" width="1275.1" height="664.3"/>
</g>
<g id="图层_4">
</g>
<g id="图层_2_x5F_复制_x5F_2">
	<linearGradient id="SVGID_1_" gradientUnits="userSpaceOnUse" x1="576.2103" y1="392.1123" x2="576.2103" y2="583.7568">
		<stop  offset="0" style="stop-color:#015F86"/>
		<stop  offset="0.4944" style="stop-color:#008FA4"/>
		<stop  offset="0.7263" style="stop-color:#015F86"/>
		<stop  offset="1" style="stop-color:#00819B"/>
	</linearGradient>
	<path class="st1" d="M958.2,579.2h-764c-18.5,0-33.5-15-33.5-33.5v-165h17v165c0,9.1,7.4,16.5,16.5,16.5h764
		c9.1,0,16.5-7.4,16.5-16.5v-165h17v165C991.7,564.2,976.7,579.2,958.2,579.2z"/>
	<g>
		<linearGradient id="SVGID_2_" gradientUnits="userSpaceOnUse" x1="618.368" y1="176.1123" x2="618.368" y2="198.6604">
			<stop  offset="0" style="stop-color:#015F86"/>
			<stop  offset="0.4944" style="stop-color:#008FA4"/>
			<stop  offset="1" style="stop-color:#015F86"/>
		</linearGradient>
		<rect x="30" y="174.4" class="st2" width="1176.7" height="16.7"/>
	</g>
	<g>
		<linearGradient id="SVGID_3_" gradientUnits="userSpaceOnUse" x1="1249.6942" y1="150.5639" x2="1249.6942" y2="173.1121">
			<stop  offset="0" style="stop-color:#015F86"/>
			<stop  offset="0.4944" style="stop-color:#008FA4"/>
			<stop  offset="1" style="stop-color:#015F86"/>
		</linearGradient>
		<rect x="1232" y="148.8" class="st3" width="35.4" height="16.7"/>
	</g>
	<g>
		<linearGradient id="SVGID_4_" gradientUnits="userSpaceOnUse" x1="613.5687" y1="367.7252" x2="613.5687" y2="394.6611">
			<stop  offset="0" style="stop-color:#015F86"/>
			<stop  offset="0.4944" style="stop-color:#008FA4"/>
			<stop  offset="1" style="stop-color:#015F86"/>
		</linearGradient>
		<rect x="25.2" y="371.4" class="st4" width="1176.7" height="16.7"/>
	</g>
	<g>
		<g>
			<path class="st5" d="M194.2,559.4c-7.5,0-13.7-6.1-13.7-13.7V521h-22.7v24.7c0,20,16.3,36.3,36.3,36.3h21.9v-22.7H194.2z"/>
		</g>
		<rect x="155.1" y="514.8" class="st6" width="28.9" height="8.8"/>
		
			<rect x="197.4" y="566.9" transform="matrix(6.123234e-17 -1 1 6.123234e-17 -359.4503 783.1613)" class="st6" width="28.9" height="8.8"/>
	</g>
	<g>
		<g>
			<path class="st5" d="M958.9,559.4c7.5,0,13.7-6.1,13.7-13.7V521h22.7v24.7c0,20-16.3,36.3-36.3,36.3h-21.9v-22.7H958.9z"/>
		</g>
		
			<rect x="969.1" y="514.8" transform="matrix(-1 -4.487178e-11 4.487178e-11 -1 1967.0658 1038.4181)" class="st6" width="28.9" height="8.8"/>
		
			<rect x="926.8" y="566.9" transform="matrix(4.493479e-11 -1 1 4.493479e-11 369.9045 1512.5161)" class="st6" width="28.9" height="8.8"/>
	</g>
</g>
<g id="图层_10">
	<g>
		<g>
			<rect x="32.7" y="181.3" class="st7" width="6" height="2.8"/>
		</g>
		<g>
			<path class="st7" d="M1185.3,184.2h-11.9v-2.8h11.9V184.2z M1161.4,184.2h-11.9v-2.8h11.9V184.2z M1137.5,184.2h-11.9v-2.8h11.9
				V184.2z M1113.6,184.2h-11.9v-2.8h11.9V184.2z M1089.7,184.2h-11.9v-2.8h11.9V184.2z M1065.9,184.2h-11.9v-2.8h11.9V184.2z
				 M1042,184.2H1030v-2.8h11.9V184.2z M1018.1,184.2h-11.9v-2.8h11.9V184.2z M994.2,184.2h-11.9v-2.8h11.9V184.2z M970.3,184.2
				h-11.9v-2.8h11.9V184.2z M946.4,184.2h-11.9v-2.8h11.9V184.2z M922.5,184.2h-11.9v-2.8h11.9V184.2z M898.6,184.2h-11.9v-2.8h11.9
				V184.2z M874.8,184.2h-11.9v-2.8h11.9V184.2z M850.9,184.2h-11.9v-2.8h11.9V184.2z M827,184.2H815v-2.8H827V184.2z M803.1,184.2
				h-11.9v-2.8h11.9V184.2z M779.2,184.2h-11.9v-2.8h11.9V184.2z M755.3,184.2h-11.9v-2.8h11.9V184.2z M731.4,184.2h-11.9v-2.8h11.9
				V184.2z M707.5,184.2h-11.9v-2.8h11.9V184.2z M683.6,184.2h-11.9v-2.8h11.9V184.2z M659.8,184.2h-11.9v-2.8h11.9V184.2z
				 M635.9,184.2h-11.9v-2.8h11.9V184.2z M612,184.2H600v-2.8H612V184.2z M588.1,184.2h-11.9v-2.8h11.9V184.2z M564.2,184.2h-11.9
				v-2.8h11.9V184.2z M540.3,184.2h-11.9v-2.8h11.9V184.2z M516.4,184.2h-11.9v-2.8h11.9V184.2z M492.5,184.2h-11.9v-2.8h11.9V184.2
				z M468.7,184.2h-11.9v-2.8h11.9V184.2z M444.8,184.2h-11.9v-2.8h11.9V184.2z M420.9,184.2h-11.9v-2.8h11.9V184.2z M397,184.2H385
				v-2.8H397V184.2z M373.1,184.2h-11.9v-2.8h11.9V184.2z M349.2,184.2h-11.9v-2.8h11.9V184.2z M325.3,184.2h-11.9v-2.8h11.9V184.2z
				 M301.4,184.2h-11.9v-2.8h11.9V184.2z M277.5,184.2h-11.9v-2.8h11.9V184.2z M253.7,184.2h-11.9v-2.8h11.9V184.2z M229.8,184.2
				h-11.9v-2.8h11.9V184.2z M205.9,184.2h-11.9v-2.8h11.9V184.2z M182,184.2H170v-2.8H182V184.2z M158.1,184.2h-11.9v-2.8h11.9
				V184.2z M134.2,184.2h-11.9v-2.8h11.9V184.2z M110.3,184.2H98.4v-2.8h11.9V184.2z M86.4,184.2H74.5v-2.8h11.9V184.2z M62.6,184.2
				H50.6v-2.8h11.9V184.2z"/>
		</g>
		<g>
			<rect x="1197.2" y="181.3" class="st7" width="6" height="2.8"/>
		</g>
	</g>
	<g>
		<g>
			<rect x="32.7" y="378.8" class="st7" width="6" height="2.8"/>
		</g>
		<g>
			<path class="st7" d="M1185.3,381.6h-11.9v-2.8h11.9V381.6z M1161.4,381.6h-11.9v-2.8h11.9V381.6z M1137.5,381.6h-11.9v-2.8h11.9
				V381.6z M1113.6,381.6h-11.9v-2.8h11.9V381.6z M1089.7,381.6h-11.9v-2.8h11.9V381.6z M1065.9,381.6h-11.9v-2.8h11.9V381.6z
				 M1042,381.6H1030v-2.8h11.9V381.6z M1018.1,381.6h-11.9v-2.8h11.9V381.6z M994.2,381.6h-11.9v-2.8h11.9V381.6z M970.3,381.6
				h-11.9v-2.8h11.9V381.6z M946.4,381.6h-11.9v-2.8h11.9V381.6z M922.5,381.6h-11.9v-2.8h11.9V381.6z M898.6,381.6h-11.9v-2.8h11.9
				V381.6z M874.8,381.6h-11.9v-2.8h11.9V381.6z M850.9,381.6h-11.9v-2.8h11.9V381.6z M827,381.6H815v-2.8H827V381.6z M803.1,381.6
				h-11.9v-2.8h11.9V381.6z M779.2,381.6h-11.9v-2.8h11.9V381.6z M755.3,381.6h-11.9v-2.8h11.9V381.6z M731.4,381.6h-11.9v-2.8h11.9
				V381.6z M707.5,381.6h-11.9v-2.8h11.9V381.6z M683.6,381.6h-11.9v-2.8h11.9V381.6z M659.8,381.6h-11.9v-2.8h11.9V381.6z
				 M635.9,381.6h-11.9v-2.8h11.9V381.6z M612,381.6H600v-2.8H612V381.6z M588.1,381.6h-11.9v-2.8h11.9V381.6z M564.2,381.6h-11.9
				v-2.8h11.9V381.6z M540.3,381.6h-11.9v-2.8h11.9V381.6z M516.4,381.6h-11.9v-2.8h11.9V381.6z M492.5,381.6h-11.9v-2.8h11.9V381.6
				z M468.7,381.6h-11.9v-2.8h11.9V381.6z M444.8,381.6h-11.9v-2.8h11.9V381.6z M420.9,381.6h-11.9v-2.8h11.9V381.6z M397,381.6H385
				v-2.8H397V381.6z M373.1,381.6h-11.9v-2.8h11.9V381.6z M349.2,381.6h-11.9v-2.8h11.9V381.6z M325.3,381.6h-11.9v-2.8h11.9V381.6z
				 M301.4,381.6h-11.9v-2.8h11.9V381.6z M277.5,381.6h-11.9v-2.8h11.9V381.6z M253.7,381.6h-11.9v-2.8h11.9V381.6z M229.8,381.6
				h-11.9v-2.8h11.9V381.6z M205.9,381.6h-11.9v-2.8h11.9V381.6z M182,381.6H170v-2.8H182V381.6z M158.1,381.6h-11.9v-2.8h11.9
				V381.6z M134.2,381.6h-11.9v-2.8h11.9V381.6z M110.3,381.6H98.4v-2.8h11.9V381.6z M86.4,381.6H74.5v-2.8h11.9V381.6z M62.6,381.6
				H50.6v-2.8h11.9V381.6z"/>
		</g>
		<g>
			<rect x="1197.2" y="378.8" class="st7" width="6" height="2.8"/>
		</g>
	</g>
	<g>
		<path class="st7" d="M958.2,572.1h-8.4v-2.8h8.4c1.1,0,2.3-0.1,3.4-0.2l0.4,2.8C960.8,572,959.5,572.1,958.2,572.1z M937.9,572.1
			h-12v-2.8h12V572.1z M913.9,572.1h-12v-2.8h12V572.1z M889.9,572.1h-12v-2.8h12V572.1z M865.9,572.1h-12v-2.8h12V572.1z
			 M841.9,572.1h-12v-2.8h12V572.1z M817.9,572.1h-12v-2.8h12V572.1z M793.9,572.1h-12v-2.8h12V572.1z M769.9,572.1h-12v-2.8h12
			V572.1z M745.9,572.1h-12v-2.8h12V572.1z M721.9,572.1h-12v-2.8h12V572.1z M697.9,572.1h-12v-2.8h12V572.1z M673.9,572.1h-12v-2.8
			h12V572.1z M649.9,572.1h-12v-2.8h12V572.1z M625.9,572.1h-12v-2.8h12V572.1z M601.9,572.1h-12v-2.8h12V572.1z M577.9,572.1h-12
			v-2.8h12V572.1z M553.9,572.1h-12v-2.8h12V572.1z M529.9,572.1h-12v-2.8h12V572.1z M505.9,572.1h-12v-2.8h12V572.1z M481.9,572.1
			h-12v-2.8h12V572.1z M457.9,572.1h-12v-2.8h12V572.1z M433.9,572.1h-12v-2.8h12V572.1z M409.9,572.1h-12v-2.8h12V572.1z
			 M385.9,572.1h-12v-2.8h12V572.1z M361.9,572.1h-12v-2.8h12V572.1z M337.9,572.1h-12v-2.8h12V572.1z M313.9,572.1h-12v-2.8h12
			V572.1z M289.9,572.1h-12v-2.8h12V572.1z M265.9,572.1h-12v-2.8h12V572.1z M241.9,572.1h-12v-2.8h12V572.1z M217.9,572.1h-12v-2.8
			h12V572.1z M193.9,572.1c-4.2,0-8.4-1.1-12.2-3.1l1.3-2.5c3.3,1.8,7.1,2.7,10.9,2.8L193.9,572.1z M973.7,567.1l-1.7-2.3
			c3.1-2.2,5.6-5.2,7.3-8.5l2.5,1.3C979.9,561.3,977.1,564.6,973.7,567.1z M172.4,560.6c-2.4-3.5-3.9-7.6-4.4-11.8l2.8-0.3
			c0.4,3.7,1.8,7.4,3.9,10.5L172.4,560.6z M984.6,545.3h-2.8v-12h2.8V545.3z M170.6,536.7h-2.8v-12h2.8V536.7z M984.6,521.3h-2.8
			v-12h2.8V521.3z M170.6,512.7h-2.8v-12h2.8V512.7z M984.6,497.3h-2.8v-12h2.8V497.3z M170.6,488.7h-2.8v-12h2.8V488.7z
			 M984.6,473.3h-2.8v-12h2.8V473.3z M170.6,464.7h-2.8v-12h2.8V464.7z M984.6,449.3h-2.8v-12h2.8V449.3z M170.6,440.7h-2.8v-12h2.8
			V440.7z M984.6,425.4h-2.8v-12h2.8V425.4z M170.6,416.7h-2.8v-12h2.8V416.7z M984.6,401.4h-2.8v-12h2.8V401.4z M170.6,392.7h-2.8
			v-12h2.8V392.7z"/>
	</g>
</g>
<g id="图层_3">
	<g>
		<rect x="171.7" y="171.2" class="st8" width="58.1" height="24.2"/>
		<rect x="170.1" y="166.1" class="st9" width="4.8" height="34.4"/>
		<rect x="226.3" y="166.1" class="st9" width="4.8" height="34.4"/>
	</g>
	<g>
		<rect x="203.1" y="368.8" class="st8" width="58.1" height="24.2"/>
		<rect x="197.9" y="363.6" class="st9" width="5.4" height="34.6"/>
		<rect x="260.7" y="363.6" class="st9" width="5.4" height="34.6"/>
	</g>
	<g>
		<rect x="374.7" y="368.8" class="st8" width="58.1" height="24.2"/>
		<rect x="369.5" y="363.6" class="st9" width="5.4" height="34.6"/>
		<rect x="432.3" y="363.6" class="st9" width="5.4" height="34.6"/>
	</g>
	<rect x="227.3" y="357.4" class="st10" width="9.4" height="21.5"/>
	<rect x="220.8" y="348.5" class="st10" width="22.3" height="10.3"/>
	<linearGradient id="SVGID_5_" gradientUnits="userSpaceOnUse" x1="218.0224" y1="344.1837" x2="245.9523" y2="344.1837">
		<stop  offset="0" style="stop-color:#2B7698"/>
		<stop  offset="0.5112" style="stop-color:#55B9D1"/>
		<stop  offset="1" style="stop-color:#2B7698"/>
	</linearGradient>
	<rect x="218" y="337.7" class="st11" width="27.9" height="13"/>
	<linearGradient id="SVGID_6_" gradientUnits="userSpaceOnUse" x1="217.0388" y1="348.2482" x2="246.9359" y2="348.2482">
		<stop  offset="0" style="stop-color:#2B7698"/>
		<stop  offset="0.5112" style="stop-color:#55B9D1"/>
		<stop  offset="1" style="stop-color:#2B7698"/>
	</linearGradient>
	<rect x="217" y="345.8" class="st12" width="29.9" height="4.9"/>
	<path class="st10" d="M204.5,337.9c0-14.9,12-26.9,26.9-26.9c14.9,0,26.9,12,26.9,26.9H204.5z"/>
	<g>
		<rect x="629.3" y="559.1" class="st8" width="58.1" height="24.2"/>
		<rect x="624.1" y="553.9" class="st9" width="5.4" height="34.6"/>
		<rect x="686.9" y="553.9" class="st9" width="5.4" height="34.6"/>
	</g>
	<g>
		<rect x="821.8" y="559.1" class="st8" width="58.1" height="24.2"/>
		<rect x="816.7" y="553.9" class="st9" width="5.4" height="34.6"/>
		<rect x="879.4" y="553.9" class="st9" width="5.4" height="34.6"/>
	</g>
	<rect x="653.5" y="547.7" class="st10" width="9.4" height="21.5"/>
	<rect x="647" y="538.8" class="st10" width="22.3" height="10.3"/>
	<rect x="640.7" y="551.5" class="st13" width="34.9" height="5.9"/>
	<linearGradient id="SVGID_7_" gradientUnits="userSpaceOnUse" x1="644.216" y1="534.474" x2="672.1458" y2="534.474">
		<stop  offset="0" style="stop-color:#2B7698"/>
		<stop  offset="0.5112" style="stop-color:#55B9D1"/>
		<stop  offset="1" style="stop-color:#2B7698"/>
	</linearGradient>
	<rect x="644.2" y="528" class="st14" width="27.9" height="13"/>
	<linearGradient id="SVGID_8_" gradientUnits="userSpaceOnUse" x1="643.2324" y1="538.5385" x2="673.1294" y2="538.5385">
		<stop  offset="0" style="stop-color:#2B7698"/>
		<stop  offset="0.5112" style="stop-color:#55B9D1"/>
		<stop  offset="1" style="stop-color:#2B7698"/>
	</linearGradient>
	<rect x="643.2" y="536.1" class="st15" width="29.9" height="4.9"/>
	<path class="st16" d="M630.7,528.1c0-14.9,12-26.9,26.9-26.9c14.9,0,26.9,12,26.9,26.9H630.7z"/>
	<g>
		<rect x="378.2" y="309.2" class="st17" width="31.3" height="52.6"/>
		<rect x="408.6" y="309.2" class="st18" width="20.4" height="52.6"/>
		<rect x="380.9" y="311.1" class="st19" width="25.4" height="23.6"/>
		<rect x="380.9" y="335.5" class="st20" width="25.4" height="23.6"/>
	</g>
	<rect x="387.7" y="359.6" class="st18" width="31.7" height="12"/>
	<g>
		<rect x="834.2" y="368.8" class="st8" width="58.1" height="24.2"/>
		<rect x="829" y="363.6" class="st9" width="5.4" height="34.6"/>
		<rect x="891.8" y="363.6" class="st9" width="5.4" height="34.6"/>
	</g>
	<g>
		<rect x="837.7" y="309.2" class="st17" width="31.3" height="52.6"/>
		<rect x="868.1" y="309.2" class="st18" width="20.4" height="52.6"/>
		<rect x="840.4" y="311.1" class="st19" width="25.4" height="23.6"/>
		<rect x="840.4" y="335.5" class="st20" width="25.4" height="23.6"/>
	</g>
	<rect x="847.2" y="359.6" class="st18" width="31.7" height="12"/>
	<g>
		<rect x="418.5" y="560.3" class="st8" width="58.1" height="24.2"/>
		<rect x="413.3" y="555.1" class="st9" width="5.4" height="34.6"/>
		<rect x="476.1" y="555.1" class="st9" width="5.4" height="34.6"/>
	</g>
	<g>
		<rect x="421.9" y="500.8" class="st17" width="31.3" height="52.6"/>
		<rect x="452.4" y="500.8" class="st18" width="20.4" height="52.6"/>
		<rect x="424.7" y="502.7" class="st19" width="25.4" height="23.6"/>
		<rect x="424.7" y="527.1" class="st20" width="25.4" height="23.6"/>
	</g>
	<rect x="431.5" y="551.1" class="st18" width="31.7" height="12"/>
	<g>
		<rect x="339.4" y="169.7" class="st8" width="58.1" height="24.2"/>
		<rect x="337.8" y="167.6" class="st9" width="4.8" height="28.4"/>
		<rect x="394" y="167.6" class="st9" width="4.8" height="28.4"/>
	</g>
	<path class="st21" d="M390.7,167h-44.9c-3.4,0-6.2-2.8-6.2-6.2V142c0-3.4,2.8-6.2,6.2-6.2h44.9c3.4,0,6.2,2.8,6.2,6.2v18.7
		C396.9,164.2,394.2,167,390.7,167z"/>
	<rect x="350.9" y="166.3" class="st9" width="34.8" height="3.1"/>
	<g>
		<rect x="344.8" y="144.5" class="st22" width="33.7" height="4.6"/>
		<rect x="344.8" y="150.2" class="st22" width="33.7" height="4.6"/>
		<rect x="344.8" y="155.8" class="st22" width="33.7" height="4.6"/>
		<rect x="382.8" y="145.5" class="st19" width="8.9" height="13.9"/>
	</g>
	<rect x="339.6" y="135.5" class="st9" width="57.3" height="4.3"/>
	<rect x="339.6" y="127" class="st21" width="57.3" height="9.7"/>
</g>
<g id="图层_5">
	<g>
		<rect x="44.2" y="163.8" class="st9" width="23.5" height="2.9"/>
		<rect x="51" y="128.3" class="st23" width="10" height="48.2"/>
		<rect x="44.2" y="125.8" class="st24" width="23.5" height="2.9"/>
		<rect x="44.5" y="154.1" class="st24" width="22.9" height="7.4"/>
		<rect x="44" y="153" class="st25" width="5" height="9.7"/>
		<rect x="62.8" y="153" class="st25" width="5" height="9.7"/>
		<circle class="st26" cx="56" cy="141.7" r="12.1"/>
		<circle class="st23" cx="56" cy="141.7" r="1.1"/>
		<g>
			<polygon class="st23" points="55.4,141.4 60,132 56.6,141.9 			"/>
		</g>
		<g>
			<polygon class="st23" points="56.6,141.7 54.5,149 55.4,141.4 			"/>
		</g>
	</g>
	<g>
		<rect x="483.2" y="163.8" class="st9" width="23.5" height="2.9"/>
		<rect x="490" y="128.3" class="st23" width="10" height="48.2"/>
		<rect x="483.2" y="125.8" class="st24" width="23.5" height="2.9"/>
		<rect x="483.5" y="154.1" class="st24" width="22.9" height="7.4"/>
		<rect x="483" y="153" class="st25" width="5" height="9.7"/>
		<rect x="501.7" y="153" class="st25" width="5" height="9.7"/>
		<circle class="st26" cx="495" cy="141.7" r="12.1"/>
		<circle class="st23" cx="495" cy="141.7" r="1.1"/>
		<g>
			<polygon class="st23" points="494.4,141.4 499,132 495.5,141.9 			"/>
		</g>
		<g>
			<polygon class="st23" points="495.6,141.7 493.5,149 494.3,141.4 			"/>
		</g>
	</g>
	<g>
		<rect x="89.7" y="163.8" class="st9" width="23.5" height="2.9"/>
		<rect x="96.5" y="145.3" class="st23" width="10" height="31.2"/>
		<rect x="90" y="155.6" class="st24" width="22.9" height="4.5"/>
		<rect x="89.5" y="155" class="st25" width="5" height="5.8"/>
		<rect x="108.2" y="155" class="st25" width="5" height="5.8"/>
		<circle class="st26" cx="101.5" cy="141.7" r="12.1"/>
		<circle class="st23" cx="101.5" cy="141.7" r="1.1"/>
		<g>
			<polygon class="st23" points="100.9,141.4 105.5,132 102,141.9 			"/>
		</g>
		<g>
			<polygon class="st23" points="102.1,141.7 100,149 100.9,141.4 			"/>
		</g>
	</g>
	<g>
		<rect x="44.2" y="365.1" class="st9" width="23.5" height="2.9"/>
		<rect x="51" y="329.6" class="st23" width="10" height="48.2"/>
		<rect x="44.2" y="327" class="st24" width="23.5" height="2.9"/>
		<rect x="44.5" y="355.4" class="st24" width="22.9" height="7.4"/>
		<rect x="44" y="354.3" class="st25" width="5" height="9.7"/>
		<rect x="62.8" y="354.3" class="st25" width="5" height="9.7"/>
		<circle class="st26" cx="56" cy="343" r="12.1"/>
		<circle class="st23" cx="56" cy="343" r="1.1"/>
		<g>
			<polygon class="st23" points="55.4,342.7 60,333.3 56.6,343.2 			"/>
		</g>
		<g>
			<polygon class="st23" points="56.6,343 54.5,350.3 55.4,342.7 			"/>
		</g>
	</g>
	<g>
		<rect x="294.6" y="365.1" class="st9" width="23.5" height="2.9"/>
		<rect x="301.3" y="329.6" class="st23" width="10" height="48.2"/>
		<rect x="294.6" y="327" class="st24" width="23.5" height="2.9"/>
		<rect x="294.9" y="355.4" class="st24" width="22.9" height="7.4"/>
		<rect x="294.4" y="354.3" class="st25" width="5" height="9.7"/>
		<rect x="313.1" y="354.3" class="st25" width="5" height="9.7"/>
		<circle class="st26" cx="306.3" cy="343" r="12.1"/>
		<circle class="st23" cx="306.3" cy="343" r="1.1"/>
		<g>
			<polygon class="st23" points="305.8,342.7 310.4,333.3 306.9,343.2 			"/>
		</g>
		<g>
			<polygon class="st23" points="307,343 304.9,350.3 305.7,342.7 			"/>
		</g>
	</g>
	<g>
		<rect x="480.4" y="365.1" class="st9" width="23.5" height="2.9"/>
		<rect x="487.1" y="329.6" class="st23" width="10" height="48.2"/>
		<rect x="480.4" y="327" class="st24" width="23.5" height="2.9"/>
		<rect x="480.7" y="355.4" class="st24" width="22.9" height="7.4"/>
		<rect x="480.2" y="354.3" class="st25" width="5" height="9.7"/>
		<rect x="498.9" y="354.3" class="st25" width="5" height="9.7"/>
		<circle class="st26" cx="492.1" cy="343" r="12.1"/>
		<circle class="st23" cx="492.1" cy="343" r="1.1"/>
		<g>
			<polygon class="st23" points="491.6,342.7 496.2,333.3 492.7,343.2 			"/>
		</g>
		<g>
			<polygon class="st23" points="492.8,343 490.7,350.3 491.5,342.7 			"/>
		</g>
	</g>
	<g>
		<rect x="745.9" y="365.1" class="st9" width="23.5" height="2.9"/>
		<rect x="752.7" y="329.6" class="st23" width="10" height="48.2"/>
		<rect x="745.9" y="327" class="st24" width="23.5" height="2.9"/>
		<rect x="746.2" y="355.4" class="st24" width="22.9" height="7.4"/>
		<rect x="745.8" y="354.3" class="st25" width="5" height="9.7"/>
		<rect x="764.5" y="354.3" class="st25" width="5" height="9.7"/>
		<circle class="st26" cx="757.7" cy="343" r="12.1"/>
		<circle class="st23" cx="757.7" cy="343" r="1.1"/>
		<g>
			<polygon class="st23" points="757.1,342.7 761.7,333.3 758.3,343.2 			"/>
		</g>
		<g>
			<polygon class="st23" points="758.3,343 756.2,350.3 757.1,342.7 			"/>
		</g>
	</g>
	<g>
		<rect x="948.8" y="365.1" class="st9" width="23.5" height="2.9"/>
		<rect x="955.5" y="329.6" class="st23" width="10" height="48.2"/>
		<rect x="948.8" y="327" class="st24" width="23.5" height="2.9"/>
		<rect x="949.1" y="355.4" class="st24" width="22.9" height="7.4"/>
		<rect x="948.6" y="354.3" class="st25" width="5" height="9.7"/>
		<rect x="967.3" y="354.3" class="st25" width="5" height="9.7"/>
		<circle class="st26" cx="960.5" cy="343" r="12.1"/>
		<circle class="st23" cx="960.5" cy="343" r="1.1"/>
		<g>
			<polygon class="st23" points="960,342.7 964.6,333.3 961.1,343.2 			"/>
		</g>
		<g>
			<polygon class="st23" points="961.1,343 959.1,350.3 959.9,342.7 			"/>
		</g>
	</g>
	<g>
		<rect x="89.7" y="365.1" class="st9" width="23.5" height="2.9"/>
		<rect x="96.5" y="346.6" class="st23" width="10" height="31.2"/>
		<rect x="90" y="356.9" class="st24" width="22.9" height="4.5"/>
		<rect x="89.5" y="356.2" class="st25" width="5" height="5.8"/>
		<rect x="108.2" y="356.2" class="st25" width="5" height="5.8"/>
		<circle class="st26" cx="101.5" cy="343" r="12.1"/>
		<circle class="st23" cx="101.5" cy="343" r="1.1"/>
		<g>
			<polygon class="st23" points="100.9,342.7 105.5,333.3 102,343.2 			"/>
		</g>
		<g>
			<polygon class="st23" points="102.1,343 100,350.3 100.9,342.7 			"/>
		</g>
	</g>
	<g>
		<rect x="1077.5" y="163.8" class="st9" width="23.5" height="2.9"/>
		<rect x="1084.3" y="128.3" class="st23" width="10" height="48.2"/>
		<rect x="1077.5" y="125.8" class="st24" width="23.5" height="2.9"/>
		<rect x="1077.8" y="154.1" class="st24" width="22.9" height="7.4"/>
		<rect x="1077.3" y="153" class="st25" width="5" height="9.7"/>
		<rect x="1096" y="153" class="st25" width="5" height="9.7"/>
		<circle class="st26" cx="1089.3" cy="141.7" r="12.1"/>
		<circle class="st23" cx="1089.3" cy="141.7" r="1.1"/>
		<g>
			<polygon class="st23" points="1088.7,141.4 1093.3,132 1089.9,141.9 			"/>
		</g>
		<g>
			<polygon class="st23" points="1089.9,141.7 1087.8,149 1088.7,141.4 			"/>
		</g>
	</g>
	<g>
		<rect x="1038.6" y="163.8" class="st9" width="23.5" height="2.9"/>
		<rect x="1045.4" y="145.3" class="st23" width="10" height="31.2"/>
		<rect x="1038.9" y="155.6" class="st24" width="22.9" height="4.5"/>
		<rect x="1038.4" y="155" class="st25" width="5" height="5.8"/>
		<rect x="1057.1" y="155" class="st25" width="5" height="5.8"/>
		<circle class="st26" cx="1050.4" cy="141.7" r="12.1"/>
		<circle class="st23" cx="1050.4" cy="141.7" r="1.1"/>
		<g>
			<polygon class="st23" points="1049.8,141.4 1054.4,132 1050.9,141.9 			"/>
		</g>
		<g>
			<polygon class="st23" points="1051,141.7 1048.9,149 1049.8,141.4 			"/>
		</g>
	</g>
	<g>
		<rect x="1149" y="364.5" class="st9" width="23.5" height="2.9"/>
		<rect x="1155.8" y="329" class="st23" width="10" height="48.2"/>
		<rect x="1149" y="326.4" class="st24" width="23.5" height="2.9"/>
		<rect x="1149.3" y="354.8" class="st24" width="22.9" height="7.4"/>
		<rect x="1148.8" y="353.7" class="st25" width="5" height="9.7"/>
		<rect x="1167.5" y="353.7" class="st25" width="5" height="9.7"/>
		<circle class="st26" cx="1160.8" cy="342.3" r="12.1"/>
		<circle class="st23" cx="1160.8" cy="342.3" r="1.1"/>
		<g>
			<polygon class="st23" points="1160.2,342.1 1164.8,332.7 1161.3,342.6 			"/>
		</g>
		<g>
			<polygon class="st23" points="1161.4,342.3 1159.3,349.6 1160.1,342.1 			"/>
		</g>
	</g>
	<g>
		<rect x="1110.1" y="364.5" class="st9" width="23.5" height="2.9"/>
		<rect x="1116.9" y="345.9" class="st23" width="10" height="31.2"/>
		<rect x="1110.4" y="356.3" class="st24" width="22.9" height="4.5"/>
		<rect x="1109.9" y="355.6" class="st25" width="5" height="5.8"/>
		<rect x="1128.6" y="355.6" class="st25" width="5" height="5.8"/>
		<circle class="st26" cx="1121.9" cy="342.3" r="12.1"/>
		<circle class="st23" cx="1121.9" cy="342.3" r="1.1"/>
		<g>
			<polygon class="st23" points="1121.3,342.1 1125.9,332.7 1122.4,342.6 			"/>
		</g>
		<g>
			<polygon class="st23" points="1122.5,342.3 1120.4,349.6 1121.2,342.1 			"/>
		</g>
	</g>
	<rect x="188.6" y="193.9" class="st8" width="24" height="15.1"/>
	<rect x="184.4" y="207.1" class="st9" width="32.5" height="3.1"/>
	<g>
		<g>
			<rect x="1032.6" y="369.2" class="st8" width="58.1" height="24.2"/>
			<rect x="1031" y="364.1" class="st9" width="4.8" height="34.4"/>
			<rect x="1087.2" y="364.1" class="st9" width="4.8" height="34.4"/>
		</g>
		<rect x="1049.5" y="391.9" class="st8" width="24" height="15.1"/>
		<rect x="1045.3" y="405" class="st9" width="32.5" height="3.1"/>
	</g>
	<rect x="839.9" y="535.2" class="st9" width="21.7" height="25.2"/>
	<rect x="845.9" y="539.5" class="st9" width="9.7" height="13.5"/>
	<rect x="829.7" y="542.2" class="st20" width="42.2" height="8.1"/>
	<circle class="st27" cx="850.7" cy="510.9" r="29"/>
	<rect x="830.6" y="498.6" class="st19" width="40.3" height="8.9"/>
	<rect x="835.3" y="516.3" class="st19" width="31" height="14.3"/>
	<g>
		<rect x="823.6" y="539.5" class="st9" width="9.7" height="13.5"/>
		<rect x="868.2" y="539.5" class="st9" width="9.7" height="13.5"/>
	</g>
</g>
<g id="图层_8">
	<g>
		<path class="st9" d="M560.4,422.7h-0.3c-3.2,0-5.9-2.6-5.9-5.9V113.5c0-3.2,2.6-5.9,5.9-5.9h0.3c3.2,0,5.9,2.6,5.9,5.9v303.4
			C566.2,420.1,563.6,422.7,560.4,422.7z"/>
		<path class="st9" d="M682.8,422.7h-0.3c-3.2,0-5.9-2.6-5.9-5.9V113.5c0-3.2,2.6-5.9,5.9-5.9h0.3c3.2,0,5.9,2.6,5.9,5.9v303.4
			C688.7,420.1,686.1,422.7,682.8,422.7z"/>
		<rect x="566.8" y="129.7" class="st28" width="5" height="278.2"/>
		<rect x="572.6" y="129.7" class="st28" width="5" height="278.2"/>
		<rect x="578.4" y="129.7" class="st28" width="5" height="278.2"/>
		<rect x="584.2" y="129.7" class="st28" width="5" height="278.2"/>
		<rect x="590" y="129.7" class="st28" width="5" height="278.2"/>
		<rect x="595.8" y="129.7" class="st28" width="5" height="278.2"/>
		<rect x="601.6" y="129.7" class="st28" width="5" height="278.2"/>
		<rect x="607.4" y="129.7" class="st28" width="5" height="278.2"/>
		<rect x="613.2" y="129.7" class="st28" width="5" height="278.2"/>
		<rect x="619" y="129.7" class="st28" width="5" height="278.2"/>
		<rect x="624.9" y="129.7" class="st28" width="5" height="278.2"/>
		<rect x="630.7" y="129.7" class="st28" width="5" height="278.2"/>
		<rect x="636.5" y="129.7" class="st28" width="5" height="278.2"/>
		<rect x="642.3" y="129.7" class="st28" width="5" height="278.2"/>
		<rect x="648.1" y="129.7" class="st28" width="5" height="278.2"/>
		<rect x="653.9" y="129.7" class="st28" width="5" height="278.2"/>
		<rect x="659.7" y="129.7" class="st28" width="5" height="278.2"/>
		<rect x="665.5" y="129.7" class="st28" width="5" height="278.2"/>
		<rect x="671.3" y="129.7" class="st28" width="5" height="278.2"/>
	</g>
	<g>
		<rect x="530.5" y="164.4" class="st8" width="179.9" height="38.2"/>
		<rect x="525.6" y="156.4" class="st9" width="15" height="54.2"/>
		<rect x="699.5" y="156.4" class="st9" width="15" height="54.2"/>
	</g>
	<g>
		<rect x="529.5" y="363.2" class="st8" width="182" height="38.2"/>
		<rect x="525.6" y="355.2" class="st9" width="15" height="54.2"/>
		<rect x="699.5" y="355.2" class="st9" width="15" height="54.2"/>
	</g>
</g>
<g id="图层_12">
	<g>
		<linearGradient id="SVGID_9_" gradientUnits="userSpaceOnUse" x1="1215.9845" y1="149.3381" x2="1215.9845" y2="166.6457">
			<stop  offset="0" style="stop-color:#015F86"/>
			<stop  offset="0.4944" style="stop-color:#008FA4"/>
			<stop  offset="1" style="stop-color:#015F86"/>
		</linearGradient>
		<rect x="1197" y="148.6" class="st29" width="37.9" height="18.1"/>
		<linearGradient id="SVGID_10_" gradientUnits="userSpaceOnUse" x1="1181.6619" y1="174.8865" x2="1181.6619" y2="192.1941">
			<stop  offset="0" style="stop-color:#015F86"/>
			<stop  offset="0.4944" style="stop-color:#008FA4"/>
			<stop  offset="1" style="stop-color:#015F86"/>
		</linearGradient>
		<rect x="1162.7" y="174.1" class="st30" width="37.9" height="18.1"/>
		<circle class="st18" cx="1199.1" cy="170.5" r="21.9"/>
		<circle class="st31" cx="1199.1" cy="170.5" r="17.3"/>
		<path class="st32" d="M1199.3,170.2l-1.2-10.7c-0.2-1.5,1.2-2.7,2.6-2.4l5.2,1.1c1.7,0.4,2.3,2.4,1.1,3.6L1199.3,170.2z"/>
		<path class="st32" d="M1199.3,170.2l-9.8-4.3c-1.4-0.6-1.7-2.4-0.7-3.5l3.6-3.9c1.1-1.2,3.2-0.8,3.7,0.8L1199.3,170.2z"/>
		<path class="st32" d="M1199.3,170.2l-8.6,6.4c-1.2,0.9-2.9,0.3-3.4-1.1l-1.6-5c-0.5-1.6,0.9-3.2,2.6-2.8L1199.3,170.2z"/>
		<path class="st32" d="M1199.3,170.2l1.2,10.7c0.2,1.5-1.2,2.7-2.6,2.4l-5.2-1.1c-1.7-0.4-2.3-2.4-1.1-3.6L1199.3,170.2z"/>
		<path class="st32" d="M1199.3,170.2l9.8,4.3c1.4,0.6,1.7,2.4,0.7,3.5l-3.6,3.9c-1.1,1.2-3.2,0.8-3.7-0.8L1199.3,170.2z"/>
		<path class="st32" d="M1199.3,170.2l8.6-6.4c1.2-0.9,2.9-0.3,3.4,1.1l1.6,5c0.5,1.6-0.9,3.2-2.6,2.8L1199.3,170.2z"/>
		<circle class="st32" cx="1200.1" cy="170.5" r="2.8"/>
		<rect x="1233.9" y="146.8" class="st33" width="6.5" height="22.2"/>
		<rect x="1156.8" y="172.6" class="st33" width="6.5" height="22.2"/>
	</g>
</g>
<g id="图层_11">
	<g>
		<g>
			<rect x="900.1" y="152.8" class="st7" width="70.3" height="4.4"/>
		</g>
		<g>
			<g>
				<polygon class="st7" points="967.2,165.9 986.1,155 967.2,144.1 				"/>
			</g>
		</g>
	</g>
	<g>
		<g>
			<rect x="161.6" y="152.8" class="st7" width="70.3" height="4.4"/>
		</g>
		<g>
			<g>
				<polygon class="st7" points="228.6,165.9 247.5,155 228.6,144.1 				"/>
			</g>
		</g>
	</g>
	<g>
		<g>
			<rect x="1122.5" y="400.1" class="st7" width="70.3" height="4.4"/>
		</g>
		<g>
			<g>
				<polygon class="st7" points="1125.7,391.4 1106.9,402.3 1125.7,413.2 				"/>
			</g>
		</g>
	</g>
	<g>
		<g>
			<rect x="53" y="400.1" class="st7" width="70.3" height="4.4"/>
		</g>
		<g>
			<g>
				<polygon class="st7" points="56.2,391.4 37.3,402.3 56.2,413.2 				"/>
			</g>
		</g>
	</g>
	<g>
		<path class="st34" d="M350.7,104.4v-1.3h-6.9v0.8c0-0.1,0.1-0.3,0.1-0.4l1.2,0.2c-0.1,0.3-0.2,0.7-0.3,1h1.3l0.2,0l0.8,0.2
			c-0.6,3.7-2.1,6-4.4,7.2c-0.2-0.3-0.5-0.8-0.8-1c1-0.5,1.8-1.3,2.5-2.3c-0.3-0.3-0.7-0.6-1-0.9l0.6-0.8c0.3,0.2,0.6,0.5,0.9,0.8
			c0.3-0.6,0.5-1.3,0.7-2.1h-1.3c-0.5,1.1-1,2-1.7,2.7c-0.1-0.1-0.4-0.3-0.7-0.5v1.7h-2.8v1.3H338V98.6h3.9v9c0.7-0.9,1.3-2,1.7-3.2
			h-1.2v-2.4h1.6c-0.2-0.5-0.6-1.3-0.9-1.8l1.1-0.5c0.4,0.6,0.8,1.4,1,1.9l-0.8,0.4h2.4c-0.2-0.6-0.5-1.4-0.8-2.1l1.1-0.4
			c-1.5,0.1-3.1,0.2-4.4,0.2c0-0.3-0.2-0.8-0.3-1.1c2.8,0,6.3-0.3,8.3-0.8l0.7,1.1c-1.1,0.3-2.6,0.5-4.2,0.6
			c0.3,0.7,0.7,1.5,0.9,2.1l-1,0.4h1.6c0.5-0.7,1.1-1.8,1.4-2.6l1.2,0.5c-0.4,0.7-0.9,1.5-1.4,2.1h1.9v2.4H350.7z M339.2,99.9v2h1.6
			v-2H339.2z M339.2,103.1v2h1.6v-2H339.2z M340.8,108.4v-2h-1.6v2H340.8z M347.1,106v-1.2h2.3v-1.1h1.2v1.1h1.2v1.2h-1.2v2.3h1.3
			v1.2h-1.3v2.9h-1.2v-2.9h-2.4c0.1-0.8,0.2-2,0.2-2.9h1.1c0,0.6-0.1,1.2-0.1,1.8h1.2V106H347.1z"/>
		<path class="st34" d="M359.4,109.4h-3.8v1.3h-1.4V98.9h5.2V109.4z M355.6,100.3v3.2h2.4v-3.2H355.6z M358,108.1v-3.3h-2.4v3.3H358
			z M368.3,102.2h-1.8v8c0,1-0.3,1.4-0.9,1.6c-0.6,0.2-1.7,0.3-3.3,0.3c-0.1-0.4-0.3-1.1-0.5-1.5c1.2,0,2.4,0,2.7,0
			c0.3,0,0.4-0.1,0.4-0.4v-8h-5v-1.5h5v-3h1.5v3h1.8V102.2z M362.8,107.8c-0.5-0.9-1.5-2.6-2.4-3.8l1.2-0.6c0.8,1.2,1.9,2.7,2.4,3.6
			L362.8,107.8z"/>
		<path class="st34" d="M376,107.8c-2.1,0.6-4.4,1.3-6.1,1.7l-0.4-1.6c0.7-0.1,1.5-0.3,2.4-0.6v-6.5h-2.2v-1.4h5.9v1.4h-2.2v6.1
			l2.4-0.6L376,107.8z M383.9,101.9c-0.2,6.5-0.4,8.8-1,9.6c-0.4,0.5-0.7,0.6-1.3,0.7c-0.5,0.1-1.4,0.1-2.3,0c0-0.4-0.2-1.1-0.5-1.5
			c0.9,0.1,1.8,0.1,2.1,0.1c0.3,0,0.5,0,0.6-0.3c0.4-0.5,0.7-2.6,0.8-7.9h-2.7c-0.3,4.2-1.2,7.7-4.8,9.8c-0.2-0.4-0.7-0.9-1.1-1.2
			c3.3-1.8,4.1-4.8,4.3-8.6h-2.4v-1.4h2.5c0-1.1,0-2.1,0-3.3h1.5c0,1.1,0,2.2,0,3.3h4.2V101.9z"/>
		<path class="st34" d="M400.1,109.2h-6.4v3.2h-1.6v-3.2h-6.4v-1.4h6.4v-1.2h1.6v1.2h6.4V109.2z M390,104.9
			c-1.2,0.6-2.4,1.3-3.5,1.8l-0.8-1.2c1-0.4,2.5-1,4-1.7L390,104.9z M395.4,106.9c-0.1-0.2-0.2-0.5-0.4-0.8c-4,0.4-4.6,0.5-4.9,0.6
			c0-0.3-0.3-0.9-0.4-1.2c0.4,0,0.8-0.4,1.3-0.8c0.3-0.2,0.9-0.7,1.6-1.4c-1.6,0.1-1.9,0.2-2.1,0.3c-0.1-0.3-0.3-0.9-0.4-1.2
			c0.2,0,0.5-0.3,0.7-0.5c0.2-0.2,0.6-0.7,1-1.4h-5.7V99h6.3c-0.2-0.4-0.4-0.8-0.6-1.1l1.5-0.4c0.3,0.4,0.7,1,0.9,1.5h5.8v1.4h-6.6
			c-0.4,0.6-0.9,1.2-1.3,1.7l1.8-0.1c0.4-0.4,0.7-0.9,1.1-1.3l1.2,0.7c-1.2,1.4-2.5,2.7-3.8,3.8l2.3-0.2c-0.2-0.3-0.4-0.6-0.7-0.9
			l1.1-0.4c0.7,0.8,1.5,2,1.8,2.8L395.4,106.9z M388.6,103.5c-0.5-0.5-1.5-1.3-2.4-1.8l1-0.8c0.8,0.5,1.9,1.2,2.4,1.8L388.6,103.5z
			 M398.8,106.9c-0.7-0.6-2-1.6-3.1-2.2l1-0.8c1.1,0.6,2.4,1.5,3.2,2.1L398.8,106.9z M399.3,101.6c-0.7,0.7-1.6,1.5-2.3,2l-1.1-0.7
			c0.7-0.5,1.6-1.4,2.2-2L399.3,101.6z"/>
	</g>
	<g>
		<path class="st34" d="M201.2,292.8h1.5v11h-1.5V292.8z M203.4,292.3c-0.4-0.6-1.2-1.6-1.9-2.2l1.1-0.7c0.6,0.6,1.5,1.6,2,2.1
			L203.4,292.3z M206.5,292.7c-0.2,0.7-0.5,1.5-0.9,2.2v7.8h-1.3v-5.6c-0.3,0.4-0.5,0.7-0.8,1c-0.1-0.3-0.5-1-0.7-1.3
			c1.1-1.1,2-2.8,2.5-4.5L206.5,292.7z M214.6,302.2c0,0.7-0.1,1.1-0.6,1.4c-0.5,0.2-1.2,0.3-2.1,0.3c-0.1-0.4-0.3-1-0.4-1.4
			c0.6,0,1.2,0,1.4,0c0.2,0,0.3-0.1,0.3-0.3v-10.9h-7.6v-1.4h9V302.2z M212.4,296.9c-0.6,1.1-1.3,2.1-2.2,2.9c0.3,0.7,0.7,1,1.2,1
			c0.3,0,0.4-0.4,0.5-1.2c0.2,0.3,0.6,0.7,0.8,0.8c-0.2,1.1-0.5,1.6-1.3,1.6c-0.9,0-1.6-0.5-2.1-1.4c-0.7,0.6-1.5,1.1-2.3,1.5
			c-0.2-0.3-0.6-0.8-0.9-1.1c0.9-0.4,1.8-1,2.6-1.6c-0.3-0.9-0.5-2-0.7-3.1l-1.7,0.2l-0.2-1.3c0.5,0,1.1-0.1,1.7-0.2
			c-0.1-0.8-0.1-1.7-0.2-2.6h1.3c0,0.8,0.1,1.6,0.2,2.4c1-0.1,2.2-0.3,3.2-0.4l0.1,1.3c-1.1,0.1-2.1,0.3-3.2,0.4
			c0.1,0.8,0.3,1.6,0.5,2.3c0.6-0.6,1-1.3,1.4-2L212.4,296.9z M210.2,292.3c0.5,0.5,1.2,1.1,1.5,1.5l-0.9,0.7
			c-0.3-0.4-1-1.1-1.5-1.6L210.2,292.3z"/>
		<path class="st34" d="M217.4,292.5h1.5v11.4h-1.5V292.5z M219,289.1c0.8,0.9,1.8,2.1,2.3,2.9l-1.2,0.9c-0.5-0.8-1.5-2.1-2.3-3
			L219,289.1z M230.5,302c0,0.9-0.2,1.3-0.8,1.5c-0.6,0.2-1.6,0.3-3.1,0.3c-0.1-0.4-0.3-1-0.5-1.4c1.1,0,2.2,0,2.5,0
			c0.3,0,0.4-0.1,0.4-0.4v-10.9h-7.3v-1.4h8.8V302z"/>
		<path class="st34" d="M247.1,297.2h-3.4v6.6h-1.6v-6.6h-4.2c-0.2,2.4-1.1,4.9-3.9,6.7c-0.3-0.3-0.8-0.9-1.2-1.1
			c2.5-1.5,3.3-3.6,3.6-5.6h-3.6v-1.4h3.7c0-0.2,0-0.4,0-0.6v-3.7h-3.2v-1.4h13.3v1.4h-2.9v4.3h3.4V297.2z M242.1,295.8v-4.3H238
			v3.7c0,0.2,0,0.4,0,0.6H242.1z"/>
		<path class="st34" d="M251.3,294.9c0,2.6-0.2,6.4-1.5,8.9c-0.3-0.2-1-0.5-1.3-0.7c1.3-2.4,1.4-5.8,1.4-8.2v-4.3h6
			c-0.2-0.4-0.3-0.9-0.5-1.2l1.5-0.4c0.3,0.5,0.5,1.1,0.7,1.6h5.4v1.4h-11.7V294.9z M261.9,298.7c-0.7,1.3-1.8,2.3-3.1,3
			c1.3,0.4,2.8,0.7,4.5,0.8c-0.3,0.3-0.7,0.9-0.9,1.3c-2-0.2-3.8-0.6-5.3-1.3c-1.6,0.6-3.4,1-5.4,1.2c-0.1-0.4-0.4-0.9-0.6-1.3
			c1.5-0.1,3-0.4,4.4-0.8c-0.9-0.6-1.7-1.2-2.3-2l0.6-0.2h-1.9v-1.2h8.8l0.3,0L261.9,298.7z M254.1,297.4v-2.6h-2.4v-1.2h2.4v-1.2
			h1.4v1.2h3.5v-1.2h1.5v1.2h2.4v1.2h-2.4v2.6H254.1z M254.7,299.4c0.6,0.7,1.4,1.2,2.4,1.7c1-0.4,1.9-1,2.5-1.7H254.7z
			 M255.5,294.8v1.4h3.5v-1.4H255.5z"/>
	</g>
	<g>
		<path class="st34" d="M388.9,275.5c-0.4,1.3-0.9,2.7-1.6,3.5c-0.2-0.2-0.8-0.5-1.1-0.7c0.6-0.8,1.1-2,1.4-3.1L388.9,275.5z
			 M393.7,275.7c-0.9,3.8-2.8,6-6.5,7.3c-0.1-0.4-0.4-0.9-0.8-1.2c1.9-0.5,3.3-1.4,4.3-2.6h-1.2v-4.8h-3.2v-1.3h1.1v-3.5h1.2v3.5
			h1.2v-4.8h1.3v1.9h2.2v1.2h-2.2v1.8h2.6v1.3h-2.8v4.5c0.7-0.9,1.2-2.1,1.5-3.5L393.7,275.7z M398,273.8c0,5.8-0.3,8-4.4,9.2
			c-0.1-0.3-0.4-0.8-0.7-1.1c3.8-1,3.9-2.7,3.9-8.1H398z M396.3,272c0.2-0.5,0.4-1,0.6-1.6h-2.9v-1.3h6.9v1.3h-2.6
			c-0.2,0.5-0.4,1.1-0.6,1.6h2.8v7.4h-1.3v-6.3h-3.6v6.4h-1.2V272H396.3z M398.1,279.6c1,0.7,2.4,1.8,3.1,2.5l-0.9,0.9
			c-0.6-0.7-2-1.8-3-2.6L398.1,279.6z"/>
		<path class="st34" d="M416.9,279.8h-6.4v3.2h-1.6v-3.2h-6.4v-1.4h6.4v-1.2h1.6v1.2h6.4V279.8z M406.8,275.5
			c-1.2,0.6-2.4,1.3-3.5,1.8l-0.8-1.2c1-0.4,2.5-1,4-1.7L406.8,275.5z M412.2,277.4c-0.1-0.2-0.2-0.5-0.4-0.8
			c-4,0.4-4.6,0.5-4.9,0.6c0-0.3-0.3-0.9-0.4-1.2c0.4,0,0.8-0.4,1.3-0.8c0.3-0.2,0.9-0.7,1.6-1.4c-1.6,0.1-1.9,0.2-2.1,0.3
			c-0.1-0.3-0.3-0.9-0.4-1.2c0.2,0,0.5-0.3,0.7-0.5c0.2-0.2,0.6-0.7,1-1.4h-5.7v-1.4h6.3c-0.2-0.4-0.4-0.8-0.6-1.1l1.5-0.4
			c0.3,0.4,0.7,1,0.9,1.5h5.8v1.4H410c-0.4,0.6-0.9,1.2-1.3,1.7l1.8-0.1c0.4-0.4,0.7-0.9,1.1-1.3l1.2,0.7c-1.2,1.4-2.5,2.7-3.8,3.8
			l2.3-0.2c-0.2-0.3-0.4-0.6-0.7-0.9l1.1-0.4c0.7,0.8,1.5,2,1.8,2.8L412.2,277.4z M405.4,274.1c-0.5-0.5-1.5-1.3-2.4-1.8l1-0.8
			c0.8,0.5,1.9,1.2,2.4,1.8L405.4,274.1z M415.6,277.5c-0.7-0.6-2-1.6-3.1-2.2l1-0.8c1.1,0.6,2.4,1.5,3.2,2.1L415.6,277.5z
			 M416.1,272.2c-0.7,0.7-1.6,1.5-2.3,2l-1.1-0.7c0.7-0.5,1.6-1.4,2.2-2L416.1,272.2z"/>
		<path class="st34" d="M398.5,300.4c0.8,0,1-0.5,1.1-2.5c0.4,0.3,1,0.5,1.5,0.6c-0.2,2.4-0.7,3.3-2.5,3.3h-3.3
			c-2,0-2.5-0.5-2.5-2.7v-1.3h-3.6v0.9h-1.5v-9.1h5.1v-2.2h1.6v2.2h5.2v8.2h-5.2v1.3c0,1,0.1,1.1,1.1,1.1H398.5z M389.2,291.2v2h3.6
			v-2H389.2z M392.8,296.5v-2h-3.6v2H392.8z M394.4,291.2v2h3.7v-2H394.4z M398,296.5v-2h-3.7v2H398z"/>
		<path class="st34" d="M405.3,294.8c-0.6-0.6-1.9-1.3-2.9-1.8l0.8-1.1c1,0.4,2.3,1.1,3,1.6L405.3,294.8z M406.8,296.9
			c-0.8,1.7-1.9,3.6-2.9,5.1l-1.2-1c0.8-1.2,2.1-3.2,3-5.1L406.8,296.9z M405.8,290.7c-0.6-0.6-1.8-1.4-2.8-2l0.8-1.1
			c1,0.5,2.2,1.3,2.8,1.9L405.8,290.7z M408.1,295.1h1.3v1.6c0,1.7-0.3,3.8-2.4,5.3c-0.2-0.3-0.7-0.8-1-1c1.9-1.3,2.1-3,2.1-4.4
			V295.1z M415.7,295c-0.2-0.3-0.4-0.7-0.7-1.1c-6.3,0.4-7.1,0.5-7.6,0.7c-0.1-0.4-0.3-1.1-0.4-1.4c0.3-0.1,0.8-0.2,1.2-0.5
			c0.3-0.3,1-1.2,1.6-2h-2.9v-1.3h4.3c-0.2-0.5-0.4-1.2-0.6-1.7l1.4-0.3c0.3,0.6,0.6,1.4,0.8,2h4v1.3h-5.3c-0.5,0.7-1.2,1.5-1.7,2.2
			l4.3-0.2c-0.3-0.4-0.7-0.9-1-1.2l1.1-0.7c1,1,2.2,2.5,2.8,3.4L415.7,295z M410.8,295.1h1.3v6.3h-1.3V295.1z M415.6,300.7
			c0.1,0,0.2,0,0.3-0.1c0.1,0,0.1-0.2,0.2-0.4c0-0.3,0-0.8,0-1.6c0.3,0.2,0.7,0.4,1,0.6c0,0.7-0.1,1.5-0.2,1.8
			c-0.1,0.3-0.3,0.5-0.5,0.7c-0.2,0.1-0.5,0.2-0.8,0.2h-0.8c-0.3,0-0.7-0.1-0.9-0.3c-0.3-0.2-0.3-0.5-0.3-1.5v-4.9h1.4v5
			c0,0.3,0,0.4,0.1,0.5c0,0,0.1,0.1,0.2,0.1H415.6z"/>
	</g>
	<g>
		<path class="st34" d="M433.9,478.6c-0.4,1.3-0.9,2.7-1.6,3.5c-0.2-0.2-0.8-0.5-1.1-0.7c0.6-0.8,1.1-2,1.4-3.1L433.9,478.6z
			 M438.6,478.8c-0.9,3.8-2.8,6-6.5,7.3c-0.1-0.4-0.4-0.9-0.8-1.2c1.9-0.5,3.3-1.4,4.3-2.6h-1.2v-4.8h-3.2v-1.3h1.1v-3.5h1.2v3.5
			h1.2v-4.8h1.3v1.9h2.2v1.2h-2.2v1.8h2.6v1.3h-2.8v4.5c0.7-0.9,1.2-2.1,1.5-3.5L438.6,478.8z M442.9,476.9c0,5.8-0.3,8-4.4,9.2
			c-0.1-0.3-0.4-0.8-0.7-1.1c3.8-1,3.9-2.7,3.9-8.1H442.9z M441.3,475.1c0.2-0.5,0.4-1,0.6-1.6h-2.9v-1.3h6.9v1.3h-2.6
			c-0.2,0.5-0.4,1.1-0.6,1.6h2.8v7.4h-1.3v-6.3h-3.6v6.4h-1.2v-7.5H441.3z M443,482.7c1,0.7,2.4,1.8,3.1,2.5l-0.9,0.9
			c-0.6-0.7-2-1.8-3-2.6L443,482.7z"/>
		<path class="st34" d="M461.8,482.9h-6.4v3.2h-1.6v-3.2h-6.4v-1.4h6.4v-1.2h1.6v1.2h6.4V482.9z M451.7,478.6
			c-1.2,0.6-2.4,1.3-3.5,1.8l-0.8-1.2c1-0.4,2.5-1,4-1.7L451.7,478.6z M457.1,480.5c-0.1-0.2-0.2-0.5-0.4-0.8
			c-4,0.4-4.6,0.5-4.9,0.6c0-0.3-0.3-0.9-0.4-1.2c0.4,0,0.8-0.4,1.3-0.8c0.3-0.2,0.9-0.7,1.6-1.4c-1.6,0.1-1.9,0.2-2.1,0.3
			c-0.1-0.3-0.3-0.9-0.4-1.2c0.2,0,0.5-0.3,0.7-0.5c0.2-0.2,0.6-0.7,1-1.4h-5.7v-1.4h6.3c-0.2-0.4-0.4-0.8-0.6-1.1l1.5-0.4
			c0.3,0.4,0.7,1,0.9,1.5h5.8v1.4H455c-0.4,0.6-0.9,1.2-1.3,1.7l1.8-0.1c0.4-0.4,0.7-0.9,1.1-1.3l1.2,0.7c-1.2,1.4-2.5,2.7-3.8,3.8
			l2.3-0.2c-0.2-0.3-0.4-0.6-0.7-0.9l1.1-0.4c0.7,0.8,1.5,2,1.8,2.8L457.1,480.5z M450.3,477.2c-0.5-0.5-1.5-1.3-2.4-1.8l1-0.8
			c0.8,0.5,1.9,1.2,2.4,1.8L450.3,477.2z M460.5,480.6c-0.7-0.6-2-1.6-3.1-2.2l1-0.8c1.1,0.6,2.4,1.5,3.2,2.1L460.5,480.6z
			 M461,475.2c-0.7,0.7-1.6,1.5-2.3,2l-1.1-0.7c0.7-0.5,1.6-1.4,2.2-2L461,475.2z"/>
	</g>
	<g>
		<path class="st34" d="M846.6,275.5c-0.4,1.3-0.9,2.7-1.6,3.5c-0.2-0.2-0.8-0.5-1.1-0.7c0.6-0.8,1.1-2,1.4-3.1L846.6,275.5z
			 M851.4,275.7c-0.9,3.8-2.8,6-6.5,7.3c-0.1-0.4-0.4-0.9-0.8-1.2c1.9-0.5,3.3-1.4,4.3-2.6h-1.2v-4.8H844v-1.3h1.1v-3.5h1.2v3.5h1.2
			v-4.8h1.3v1.9h2.2v1.2h-2.2v1.8h2.6v1.3h-2.8v4.5c0.7-0.9,1.2-2.1,1.5-3.5L851.4,275.7z M855.7,273.8c0,5.8-0.3,8-4.5,9.2
			c-0.1-0.3-0.4-0.8-0.7-1.1c3.8-1,3.9-2.7,3.9-8.1H855.7z M854,272c0.2-0.5,0.4-1,0.6-1.6h-2.9v-1.3h6.9v1.3H856
			c-0.2,0.5-0.4,1.1-0.6,1.6h2.8v7.4h-1.3v-6.3h-3.6v6.4H852V272H854z M855.8,279.6c1,0.7,2.4,1.8,3.1,2.5L858,283
			c-0.6-0.7-2-1.8-3-2.6L855.8,279.6z"/>
		<path class="st34" d="M874.5,279.8h-6.4v3.2h-1.6v-3.2h-6.4v-1.4h6.4v-1.2h1.6v1.2h6.4V279.8z M864.5,275.5
			c-1.2,0.6-2.4,1.3-3.5,1.8l-0.8-1.2c1-0.4,2.5-1,4-1.7L864.5,275.5z M869.9,277.4c-0.1-0.2-0.2-0.5-0.4-0.8
			c-4,0.4-4.6,0.5-4.9,0.6c0-0.3-0.3-0.9-0.4-1.2c0.4,0,0.8-0.4,1.3-0.8c0.3-0.2,0.9-0.7,1.6-1.4c-1.6,0.1-1.9,0.2-2.1,0.3
			c-0.1-0.3-0.3-0.9-0.4-1.2c0.2,0,0.5-0.3,0.7-0.5c0.2-0.2,0.6-0.7,1-1.4h-5.7v-1.4h6.3c-0.2-0.4-0.4-0.8-0.6-1.1l1.5-0.4
			c0.3,0.4,0.7,1,0.9,1.5h5.8v1.4h-6.6c-0.4,0.6-0.9,1.2-1.3,1.7l1.8-0.1c0.4-0.4,0.7-0.9,1.1-1.3l1.2,0.7c-1.2,1.4-2.5,2.7-3.8,3.8
			l2.3-0.2c-0.2-0.3-0.4-0.6-0.7-0.9l1.1-0.4c0.7,0.8,1.5,2,1.8,2.8L869.9,277.4z M863.1,274.1c-0.5-0.5-1.5-1.3-2.4-1.8l1-0.8
			c0.8,0.5,1.9,1.2,2.4,1.8L863.1,274.1z M873.2,277.5c-0.7-0.6-2-1.6-3.1-2.2l1-0.8c1.1,0.6,2.4,1.5,3.2,2.1L873.2,277.5z
			 M873.7,272.2c-0.7,0.7-1.6,1.5-2.3,2l-1.1-0.7c0.7-0.5,1.6-1.4,2.2-2L873.7,272.2z"/>
		<path class="st34" d="M856.2,300.4c0.8,0,1-0.5,1.1-2.5c0.4,0.3,1,0.5,1.5,0.6c-0.2,2.4-0.7,3.3-2.5,3.3H853c-2,0-2.5-0.5-2.5-2.7
			v-1.3h-3.6v0.9h-1.5v-9.1h5.1v-2.2h1.6v2.2h5.2v8.2H852v1.3c0,1,0.1,1.1,1.1,1.1H856.2z M846.9,291.2v2h3.6v-2H846.9z
			 M850.5,296.5v-2h-3.6v2H850.5z M852,291.2v2h3.7v-2H852z M855.7,296.5v-2H852v2H855.7z"/>
		<path class="st34" d="M863,294.8c-0.6-0.6-1.9-1.3-2.9-1.8l0.8-1.1c1,0.4,2.3,1.1,3,1.6L863,294.8z M864.5,296.9
			c-0.8,1.7-1.9,3.6-2.9,5.1l-1.2-1c0.8-1.2,2.1-3.2,3-5.1L864.5,296.9z M863.5,290.7c-0.6-0.6-1.8-1.4-2.8-2l0.8-1.1
			c1,0.5,2.2,1.3,2.8,1.9L863.5,290.7z M865.8,295.1h1.3v1.6c0,1.7-0.3,3.8-2.4,5.3c-0.2-0.3-0.7-0.8-1-1c1.9-1.3,2.1-3,2.1-4.4
			V295.1z M873.4,295c-0.2-0.3-0.4-0.7-0.7-1.1c-6.3,0.4-7.1,0.5-7.6,0.7c-0.1-0.4-0.3-1.1-0.4-1.4c0.3-0.1,0.8-0.2,1.2-0.5
			c0.3-0.3,1-1.2,1.6-2h-2.9v-1.3h4.3c-0.2-0.5-0.4-1.2-0.6-1.7l1.4-0.3c0.3,0.6,0.6,1.4,0.8,2h4v1.3h-5.3c-0.5,0.7-1.2,1.5-1.7,2.2
			l4.3-0.2c-0.3-0.4-0.7-0.9-1-1.2l1.1-0.7c1,1,2.2,2.5,2.8,3.4L873.4,295z M868.5,295.1h1.3v6.3h-1.3V295.1z M873.3,300.7
			c0.1,0,0.2,0,0.3-0.1c0.1,0,0.1-0.2,0.2-0.4c0-0.3,0-0.8,0-1.6c0.3,0.2,0.7,0.4,1,0.6c0,0.7-0.1,1.5-0.2,1.8
			c-0.1,0.3-0.3,0.5-0.5,0.7c-0.2,0.1-0.5,0.2-0.8,0.2h-0.8c-0.3,0-0.7-0.1-0.9-0.3c-0.3-0.2-0.3-0.5-0.3-1.5v-4.9h1.4v5
			c0,0.3,0,0.4,0.1,0.5c0,0,0.1,0.1,0.2,0.1H873.3z"/>
	</g>
	<g>
		<path class="st34" d="M825.1,473.5c-1.1,0.9-2.6,1.8-3.8,2.4c-0.3-0.3-0.8-0.8-1.1-1c1.3-0.5,2.7-1.3,3.6-2L825.1,473.5z
			 M828.2,472.3v2.4c0,0.7-0.1,1.1-0.7,1.3c-0.5,0.2-1.3,0.2-2.3,0.2c-0.1-0.4-0.3-1-0.5-1.3c0.7,0,1.5,0,1.7,0c0.2,0,0.3,0,0.3-0.2
			v-2.3c-4.2,0.2-4.8,0.2-5.3,0.4c0-0.2-0.2-0.9-0.4-1.3c0.5,0,1.2-0.2,2.1-0.6c0.5-0.1,1.4-0.5,2.4-1c-2.6,0.2-3.1,0.3-3.4,0.4
			c-0.1-0.3-0.3-0.9-0.4-1.3c0.3,0,0.7-0.2,1.1-0.4c0.3-0.1,1.1-0.5,1.9-1h-3.1v-5.6h11.7v5.6h-6.4c-0.7,0.5-1.4,0.9-2.1,1.2
			l3.2-0.2c0.6-0.3,1.2-0.7,1.8-1l1.1,0.9c-1.8,1.1-3.7,2-5.6,2.7l5.7-0.2c-0.4-0.3-0.8-0.7-1.1-0.9l1.1-0.7c1.2,0.8,2.4,2,3.1,2.9
			l-1.1,0.8c-0.2-0.3-0.5-0.6-0.8-0.9L828.2,472.3z M823,464.3h3.6v-1.1H823V464.3z M823,466.5h3.6v-1.1H823V466.5z M831.8,463.2
			H828v1.1h3.7V463.2z M831.8,465.4H828v1.1h3.7V465.4z M830.3,472.9c1.3,0.6,3,1.5,3.9,2.2L833,476c-0.8-0.7-2.5-1.6-3.8-2.3
			L830.3,472.9z"/>
		<path class="st34" d="M841.9,471.7c0.1,0.4,0.3,1.1,0.5,1.3c-3.1,2.2-3.6,2.6-3.8,3c-0.1-0.4-0.5-1.1-0.8-1.4
			c0.3-0.2,0.8-0.7,0.8-1.4V468h-2.4v-1.5h3.9v6.5L841.9,471.7z M840,465.2c-0.5-0.7-1.7-1.7-2.5-2.5l0.9-1c0.9,0.7,2.1,1.7,2.6,2.4
			L840,465.2z M850.7,468.2h-3.9v8h-1.6v-8h-3.9v-1.5h3.9v-5.1h1.6v5.1h3.9V468.2z"/>
		<path class="st34" d="M855,468.9c-0.6-0.6-1.9-1.3-2.9-1.8l0.8-1.1c1,0.4,2.3,1.1,3,1.6L855,468.9z M856.5,471
			c-0.8,1.7-1.9,3.6-2.9,5.1l-1.2-1c0.8-1.2,2.1-3.2,3-5.1L856.5,471z M855.5,464.8c-0.6-0.6-1.8-1.4-2.8-2l0.8-1.1
			c1,0.5,2.2,1.3,2.8,1.9L855.5,464.8z M857.8,469.2h1.3v1.6c0,1.7-0.3,3.8-2.4,5.3c-0.2-0.3-0.7-0.8-1-1c1.9-1.3,2.1-3,2.1-4.4
			V469.2z M865.4,469.1c-0.2-0.3-0.4-0.7-0.7-1.1c-6.3,0.4-7.1,0.5-7.6,0.7c-0.1-0.4-0.3-1.1-0.4-1.4c0.3-0.1,0.8-0.2,1.2-0.5
			c0.3-0.3,1-1.2,1.6-2h-2.9v-1.3h4.3c-0.2-0.5-0.4-1.2-0.6-1.7l1.4-0.3c0.3,0.6,0.6,1.4,0.8,2h4v1.3h-5.3c-0.5,0.7-1.2,1.5-1.7,2.2
			l4.3-0.2c-0.3-0.4-0.7-0.9-1-1.2l1.1-0.7c1,1,2.2,2.5,2.8,3.4L865.4,469.1z M860.5,469.3h1.3v6.3h-1.3V469.3z M865.3,474.8
			c0.1,0,0.2,0,0.3-0.1c0.1,0,0.1-0.2,0.2-0.4c0-0.3,0-0.8,0-1.6c0.3,0.2,0.7,0.4,1,0.6c0,0.7-0.1,1.5-0.2,1.8
			c-0.1,0.3-0.3,0.5-0.5,0.7c-0.2,0.1-0.5,0.2-0.8,0.2h-0.8c-0.3,0-0.7-0.1-0.9-0.3c-0.3-0.2-0.3-0.5-0.3-1.5v-4.9h1.4v5
			c0,0.3,0,0.4,0.1,0.5c0,0,0.1,0.1,0.2,0.1H865.3z"/>
		<path class="st34" d="M882.6,474.7v1.1h-14.4v-1.1h6.5v-0.8h-5.1v-1h5.1v-0.7h-4.7v-4h11v4h-4.9v0.7h5.1v1h-5.1v0.8H882.6z
			 M882.5,467.6h-14.3v-1.1h14.3V467.6z M880.5,465.9h-10.2v-3.9h10.2V465.9z M871.4,469.8h3.3v-0.8h-3.3V469.8z M874.6,471.4v-0.8
			h-3.3v0.8H874.6z M879,462.9h-7.3v0.8h7.3V462.9z M879,464.4h-7.3v0.8h7.3V464.4z M879.4,469.1h-3.4v0.8h3.4V469.1z M879.4,470.6
			h-3.4v0.8h3.4V470.6z"/>
	</g>
	<g>
		<path class="st34" d="M657.3,469.6h-3.4v6.6h-1.6v-6.6h-4.2c-0.2,2.4-1.1,4.9-3.9,6.7c-0.3-0.3-0.8-0.9-1.2-1.1
			c2.5-1.5,3.3-3.6,3.6-5.6H643v-1.4h3.7c0-0.2,0-0.4,0-0.6V464h-3.2v-1.4h13.3v1.4h-2.9v4.3h3.4V469.6z M652.3,468.2V464h-4.1v3.7
			c0,0.2,0,0.4,0,0.6H652.3z"/>
		<path class="st34" d="M662.1,468.4c0,2.5-0.4,5.7-2.1,7.9c-0.2-0.3-0.9-0.8-1.2-1c1.7-2.2,1.9-5.3,1.9-7.6v-3.9h5.2
			c-0.2-0.6-0.5-1.3-0.8-1.9l1.4-0.4c0.4,0.7,0.8,1.6,1,2.1l-0.3,0.1h5v4.7H662.1z M662.1,465.2v1.9h8.5v-1.9H662.1z M672.4,469.9
			v6.2h-1.5v-0.9h-6.8v0.9h-1.5v-6.2H672.4z M670.9,473.9v-2.6h-6.8v2.6H670.9z"/>
		<path class="st34" d="M651.4,489.6c1.2,2.1,3.3,3.7,6.1,4.3c-0.4,0.4-0.8,1-1.1,1.5c-2.7-0.8-4.7-2.4-6-4.6
			c-0.8,1.7-2.6,3.4-6.5,4.7c-0.2-0.4-0.7-1-1.1-1.3c4.1-1.3,5.6-2.9,6.2-4.5h-5.8v-1.5h6.1c0-0.2,0-0.4,0-0.6v-2h-5.1v-1.5h2.9
			c-0.3-0.8-0.9-1.8-1.5-2.6l1.2-0.6c0.7,0.8,1.4,1.9,1.7,2.6l-1,0.6h4.1c0.6-1,1.3-2.3,1.7-3.3l1.6,0.5c-0.5,0.9-1.1,1.9-1.7,2.7
			h2.9v1.5H651v2c0,0.2,0,0.4,0,0.5h6v1.5H651.4z"/>
		<path class="st34" d="M659.4,484.4h1.5v11h-1.5V484.4z M661.6,484c-0.4-0.7-1.2-1.7-2-2.4l1.2-0.7c0.8,0.7,1.6,1.7,2,2.4
			L661.6,484z M668.5,487.4v5c0,0.8-0.2,1.2-0.7,1.4c-0.6,0.2-1.4,0.3-2.7,0.3c-0.1-0.4-0.3-1-0.5-1.4c0.9,0,1.8,0,2,0
			c0.3,0,0.4-0.1,0.4-0.3v-3.8c-1.2,1.6-2.8,3-4.7,4c-0.2-0.3-0.7-0.8-1-1.1c2-1,3.7-2.5,4.8-4.1H662V486h5v-2.1h1.5v2.1h2v1.4
			H668.5z M672.8,493.7c0,0.8-0.2,1.2-0.6,1.4c-0.5,0.2-1.2,0.3-2.3,0.3c-0.1-0.4-0.3-1-0.4-1.4c0.7,0,1.5,0,1.7,0
			c0.2,0,0.3-0.1,0.3-0.3V483h-7.6v-1.4h9V493.7z"/>
	</g>
	<g>
		<path class="st34" d="M52,98h4.6c3.6,0,6.1,1.2,6.1,4.7c0,3.4-2.4,5-5.9,5h-2.7v6.4h-2V98z M56.5,106c2.8,0,4.2-1,4.2-3.3
			c0-2.3-1.4-3.1-4.3-3.1h-2.3v6.4H56.5z"/>
	</g>
	<g>
		<path class="st34" d="M490.2,98h4.6c3.6,0,6.1,1.2,6.1,4.7c0,3.4-2.4,5-5.9,5h-2.7v6.4h-2V98z M494.7,106c2.8,0,4.2-1,4.2-3.3
			c0-2.3-1.4-3.1-4.3-3.1h-2.3v6.4H494.7z"/>
	</g>
	<g>
		<path class="st34" d="M100.7,99.7h-4.9V98h11.8v1.7h-4.9v14.4h-2V99.7z"/>
	</g>
	<g>
		<path class="st34" d="M52,301.2h4.6c3.6,0,6.1,1.2,6.1,4.7c0,3.4-2.4,5-5.9,5h-2.7v6.4h-2V301.2z M56.5,309.3c2.8,0,4.2-1,4.2-3.3
			c0-2.3-1.4-3.1-4.3-3.1h-2.3v6.4H56.5z"/>
	</g>
	<g>
		<path class="st34" d="M1159.1,301.2h4.6c3.6,0,6.1,1.2,6.1,4.7c0,3.4-2.4,5-5.9,5h-2.7v6.4h-2V301.2z M1163.5,309.3
			c2.8,0,4.2-1,4.2-3.3c0-2.3-1.4-3.1-4.3-3.1h-2.3v6.4H1163.5z"/>
	</g>
	<g>
		<path class="st34" d="M302.9,301.2h4.6c3.6,0,6.1,1.2,6.1,4.7c0,3.4-2.4,5-5.9,5h-2.7v6.4h-2V301.2z M307.3,309.3
			c2.8,0,4.2-1,4.2-3.3c0-2.3-1.4-3.1-4.3-3.1h-2.3v6.4H307.3z"/>
	</g>
	<g>
		<path class="st34" d="M489.6,301.2h4.6c3.6,0,6.1,1.2,6.1,4.7c0,3.4-2.4,5-5.9,5h-2.7v6.4h-2V301.2z M494,309.3
			c2.8,0,4.2-1,4.2-3.3c0-2.3-1.4-3.1-4.3-3.1h-2.3v6.4H494z"/>
	</g>
	<g>
		<path class="st34" d="M753.3,301.2h4.6c3.6,0,6.1,1.2,6.1,4.7c0,3.4-2.4,5-5.9,5h-2.7v6.4h-2V301.2z M757.8,309.3
			c2.8,0,4.2-1,4.2-3.3c0-2.3-1.4-3.1-4.3-3.1h-2.3v6.4H757.8z"/>
	</g>
	<g>
		<path class="st34" d="M958.9,301.2h4.6c3.6,0,6.1,1.2,6.1,4.7c0,3.4-2.4,5-5.9,5h-2.7v6.4h-2V301.2z M963.3,309.3
			c2.8,0,4.2-1,4.2-3.3c0-2.3-1.4-3.1-4.3-3.1h-2.3v6.4H963.3z"/>
	</g>
	<g>
		<path class="st34" d="M100.7,302.9h-4.9v-1.7h11.8v1.7h-4.9v14.4h-2V302.9z"/>
	</g>
	<g>
		<path class="st34" d="M1119.1,302.9h-4.9v-1.7h11.8v1.7h-4.9v14.4h-2V302.9z"/>
	</g>
	<g>
		<path class="st34" d="M1086.6,98h4.6c3.6,0,6.1,1.2,6.1,4.7c0,3.4-2.4,5-5.9,5h-2.7v6.4h-2V98z M1091,106c2.8,0,4.2-1,4.2-3.3
			c0-2.3-1.4-3.1-4.3-3.1h-2.3v6.4H1091z"/>
	</g>
	<g>
		<path class="st34" d="M1048,99.7h-4.9V98h11.8v1.7h-4.9v14.4h-2V99.7z"/>
	</g>
</g>
</svg>
